<?xml version="1.0" encoding="UTF-8" standalone="no"?>
<svg width="1745px" height="296px" viewBox="0 0 1745 296" version="1.1" xmlns="http://www.w3.org/2000/svg" xmlns:xlink="http://www.w3.org/1999/xlink" xmlns:sketch="http://www.bohemiancoding.com/sketch/ns">
    <!-- Generator: Sketch 3.3.3 (12072) - http://www.bohemiancoding.com/sketch -->
    <title>MetaDisk</title>
    <desc>Created with Sketch.</desc>
    <defs></defs>
    <g id="Page-1" stroke="none" stroke-width="1" fill="none" fill-rule="evenodd" sketch:type="MSPage">
        <g id="MetaDisk" sketch:type="MSLayerGroup" transform="translate(0.000000, -62.000000)">
            <g id="Icon" fill="#2684FF" sketch:type="MSShapeGroup">
                <g id="Front-circle" transform="translate(313.830952, 212.000000) rotate(45.000000) translate(-313.830952, -212.000000) translate(163.330952, 64.000000)">
                    <path d="M174.99506,292.626889 C243.8126,280.145119 296,219.917069 296,147.5 C296,67.0055482 231.521391,1.57088243 151.396034,0.0278631974 L151.396034,0.0278631974 L180.017449,28.6492787 L180,28.6667281 L180.017449,28.6841776 L152.610927,56.0907 C201.237192,58.2406936 240,98.3435774 240,147.5 C240,187.02915 214.933735,220.703759 179.829152,233.49588 L179.829152,233.49588 L180.017449,233.684178 L148.034899,265.666728 L174.99506,292.626889 L174.99506,292.626889 Z M147.959308,294.99903 C66.7459884,294.70759 1,228.781694 1,147.5 C1,74.3890147 54.192333,13.7017644 123.987763,2.0274852 L150.627006,28.6667281 L150.627006,28.6667281 L118.644455,60.6492787 L118.891726,60.8965496 C82.8883254,73.2023241 57,107.327891 57,147.5 C57,196.9788 96.2729033,237.284922 145.347039,238.946695 L118.644455,265.649279 L118.661905,265.666728 L118.644455,265.684178 L147.959308,294.99903 L147.959308,294.99903 Z" id="Triangle-1"></path>
                </g>
                <path d="M314.931431,123.11461 C316.542319,131.846229 317.384189,140.84733 317.384189,150.04506 C317.384189,231.507061 251.34619,297.54506 169.884189,297.54506 C132.027366,297.54506 97.5015483,283.283334 71.386433,259.839581 L107.384189,259.839581 L107.384189,259.781449 L107.384189,259.781449 L107.781449,259.781449 L107.781449,232.026378 C126.57161,240.703965 147.497074,245.54506 169.553237,245.54506 C242.469504,245.54506 303.028124,192.635687 314.931432,123.114607 Z M24.5059941,124.975511 C23.1109348,133.123332 22.384189,141.499326 22.384189,150.04506 C22.384189,183.4753 33.5056729,214.307977 52.2506078,239.04506 L86.9869287,239.04506 L86.9869287,220.288346 C54.8904727,198.567101 31.8047217,164.537382 24.5059933,124.975507 Z" id="Triangle-3" opacity="0.8" transform="translate(169.884189, 210.329834) scale(1, -1) rotate(-270.000000) translate(-169.884189, -210.329834) "></path>
                <path d="M232.931431,123.11461 C234.542319,131.846229 235.384189,140.84733 235.384189,150.04506 C235.384189,231.507061 169.34619,297.54506 87.884189,297.54506 C50.0273664,297.54506 15.5015483,283.283334 -10.613567,259.839581 L25.384189,259.839581 L25.384189,259.781449 L25.384189,259.781449 L25.7814493,259.781449 L25.7814493,232.026378 C44.5716099,240.703965 65.497074,245.54506 87.5532365,245.54506 C160.469504,245.54506 221.028124,192.635687 232.931432,123.114607 Z M-57.4940059,124.975511 C-58.8890652,133.123332 -59.615811,141.499326 -59.615811,150.04506 C-59.615811,183.4753 -48.4943271,214.307977 -29.7493922,239.04506 L-29.7493922,239.04506 L4.98692871,239.04506 L4.98692871,220.288346 C-27.1095273,198.567101 -50.1952783,164.537382 -57.4940067,124.975507 Z" id="Triangle-4" opacity="0.6" transform="translate(87.884189, 210.329834) scale(1, -1) rotate(-270.000000) translate(-87.884189, -210.329834) "></path>
            </g>
            <path d="M566.152,107.264 L534.032,107.264 L534.032,314 L555.056,314 L555.056,135.296 L555.64,135.296 L630.392,314 L641.488,314 L716.24,135.296 L716.824,135.296 L716.824,314 L737.848,314 L737.848,107.264 L705.728,107.264 L635.94,275.456 L566.152,107.264 Z M900.216,250.928 L900.216,242.168 C900.216,204.792 876.272,174.132 834.808,173.84 C795.972,173.84 765.896,204.5 765.896,245.672 C765.896,286.844 795.972,317.504 836.56,317.504 C859.044,317.504 879.192,309.036 895.252,288.596 L880.36,276.332 C872.768,288.596 857,299.984 836.56,299.984 C809.404,299.984 788.672,278.376 786.336,250.928 L900.216,250.928 Z M786.92,235.16 C786.92,212.676 809.696,191.36 834.808,191.36 C862.548,191.36 879.192,209.172 879.192,235.16 L786.92,235.16 Z M1002.816,177.344 L963.396,177.344 L963.396,138.8 L944.124,138.8 L944.124,177.344 L915.216,177.344 L915.216,194.864 L944.124,194.864 L944.124,281.004 C944.124,311.08 963.396,317.504 977.996,317.504 C987.632,317.504 996.976,315.752 1003.984,312.54 L1003.108,294.728 C997.268,297.94 989.968,299.984 983.252,299.984 C971.28,299.984 963.396,295.896 963.396,275.456 L963.396,194.864 L1002.816,194.864 L1002.816,177.344 Z M1108.164,230.196 C1075.46,230.196 1023.192,233.116 1023.192,277.5 C1023.192,304.072 1045.968,317.504 1070.204,317.504 C1092.104,317.504 1107.288,309.912 1118.384,291.808 L1118.968,291.808 C1118.968,299.108 1119.552,307.284 1120.72,314 L1139.408,314 C1138.24,306.7 1137.072,293.852 1137.072,283.34 L1137.072,222.312 C1137.072,189.024 1114.004,173.84 1087.14,173.84 C1061.444,173.84 1041.88,180.848 1029.324,193.696 L1041.004,207.42 C1052.684,196.908 1066.7,191.36 1082.76,191.36 C1106.412,191.36 1117.8,203.04 1117.8,226.692 L1117.8,230.196 L1108.164,230.196 Z M1117.8,245.964 L1117.8,255.892 C1117.8,280.128 1104.368,299.984 1076.336,299.984 C1060.86,299.984 1044.216,292.976 1044.216,274.872 C1044.216,247.424 1088.308,245.964 1107.872,245.964 L1117.8,245.964 Z M1187.792,314 L1264.88,314 C1314.52,314 1374.38,281.296 1374.38,210.632 C1374.38,140.552 1323.572,107.264 1269.26,107.264 L1187.792,107.264 L1187.792,314 Z M1225.584,280.712 L1225.584,140.552 L1259.164,140.552 C1304.132,140.552 1336.836,160.408 1336.836,210.632 C1336.836,260.856 1299.168,280.712 1253.032,280.712 L1225.584,280.712 Z M1401.792,314 L1436.832,314 L1436.832,173.84 L1401.792,173.84 L1401.792,314 Z M1396.828,126.244 C1396.828,137.34 1406.172,147.268 1419.02,147.268 C1431.868,147.268 1441.796,138.216 1441.796,126.244 C1441.796,114.272 1431.868,105.22 1419.02,105.22 C1406.172,105.22 1396.828,115.148 1396.828,126.244 L1396.828,126.244 Z M1575.24,191.652 C1563.852,176.176 1543.996,170.336 1525.308,170.336 C1496.984,170.336 1468.952,184.352 1468.952,215.596 C1468.952,269.032 1544.58,246.256 1544.58,275.164 C1544.58,286.26 1531.44,291.224 1521.22,291.224 C1506.328,291.224 1496.984,283.924 1487.932,273.996 L1464.572,295.896 C1478.88,311.956 1497.568,317.504 1519.176,317.504 C1547.792,317.504 1579.62,305.824 1579.62,272.536 C1579.62,217.932 1503.992,238.372 1503.992,213.26 C1503.992,202.748 1515.088,198.368 1524.432,198.368 C1536.404,198.368 1545.164,203.332 1551.88,212.676 L1575.24,191.652 Z M1606.776,314 L1641.816,314 L1641.816,242.46 L1642.4,242.46 L1698.172,314 L1744.6,314 L1680.652,237.496 L1740.804,173.84 L1695.836,173.84 L1641.816,231.948 L1641.816,93.248 L1606.776,93.248 L1606.776,314 Z" fill="#2683FF" sketch:type="MSShapeGroup"></path>
        </g>
    </g>
</svg>